<?xml version="1.0" encoding="utf-8"?>
<!-- Generator: Adobe Illustrator 27.2.0, SVG Export Plug-In . SVG Version: 6.00 Build 0)  -->
<svg version="1.1" id="Layer_1" xmlns="http://www.w3.org/2000/svg" xmlns:xlink="http://www.w3.org/1999/xlink" x="0px" y="0px"
	 viewBox="0 0 83 88.1" style="enable-background:new 0 0 83 88.1;" xml:space="preserve">
<style type="text/css">
	.st0{fill:#EA2846;}
	.st1{fill:#FFFFFF;}
</style>
<g>
	<g>
		<ellipse class="st0" cx="11.5" cy="19" rx="1.5" ry="1"/>
		<ellipse class="st0" cx="11.5" cy="17" rx="1.5" ry="1"/>
		<ellipse class="st0" cx="11.5" cy="15" rx="1.5" ry="1"/>
		<ellipse class="st0" cx="11.5" cy="13" rx="1.5" ry="1"/>
		<ellipse class="st0" cx="11.5" cy="11" rx="1.5" ry="1"/>
		<ellipse class="st0" cx="13.5" cy="17" rx="1.5" ry="1"/>
		<ellipse class="st0" cx="13.5" cy="15" rx="1.5" ry="1"/>
		<ellipse class="st0" cx="13.5" cy="13" rx="1.5" ry="1"/>
		<ellipse class="st0" cx="13.5" cy="11" rx="1.5" ry="1"/>
		<ellipse class="st0" cx="13.5" cy="9" rx="1.5" ry="1"/>
		<ellipse class="st0" cx="15.5" cy="15" rx="1.5" ry="1"/>
		<ellipse class="st0" cx="15.5" cy="13" rx="1.5" ry="1"/>
		<ellipse class="st0" cx="15.5" cy="11" rx="1.5" ry="1"/>
		<ellipse class="st0" cx="15.5" cy="9" rx="1.5" ry="1"/>
		<ellipse class="st0" cx="15.5" cy="7" rx="1.5" ry="1"/>
		<ellipse class="st0" cx="17.5" cy="13" rx="1.5" ry="1"/>
		<ellipse class="st0" cx="17.5" cy="11" rx="1.5" ry="1"/>
		<ellipse class="st0" cx="17.5" cy="9" rx="1.5" ry="1"/>
		<ellipse class="st0" cx="17.5" cy="7" rx="1.5" ry="1"/>
		<ellipse class="st0" cx="17.5" cy="5" rx="1.5" ry="1"/>
		<ellipse class="st0" cx="19.5" cy="11" rx="1.5" ry="1"/>
		<ellipse class="st0" cx="19.5" cy="9" rx="1.5" ry="1"/>
		<ellipse class="st0" cx="19.5" cy="7" rx="1.5" ry="1"/>
		<ellipse class="st0" cx="19.5" cy="5" rx="1.5" ry="1"/>
		<ellipse class="st0" cx="19.5" cy="3" rx="1.5" ry="1"/>
		<ellipse class="st0" cx="21.5" cy="9" rx="1.5" ry="1"/>
		<ellipse class="st0" cx="21.5" cy="7" rx="1.5" ry="1"/>
		<ellipse class="st0" cx="21.5" cy="5" rx="1.5" ry="1"/>
		<ellipse class="st0" cx="21.5" cy="3" rx="1.5" ry="1"/>
		<ellipse class="st0" cx="21.5" cy="1" rx="1.5" ry="1"/>
		<ellipse class="st0" cx="23.5" cy="11" rx="1.5" ry="1"/>
		<ellipse class="st0" cx="23.5" cy="9" rx="1.5" ry="1"/>
		<ellipse class="st0" cx="23.5" cy="7" rx="1.5" ry="1"/>
		<ellipse class="st0" cx="23.5" cy="5" rx="1.5" ry="1"/>
		<ellipse class="st0" cx="23.5" cy="3" rx="1.5" ry="1"/>
		<ellipse class="st0" cx="25.5" cy="13" rx="1.5" ry="1"/>
		<ellipse class="st0" cx="25.5" cy="11" rx="1.5" ry="1"/>
		<ellipse class="st0" cx="25.5" cy="9" rx="1.5" ry="1"/>
		<ellipse class="st0" cx="25.5" cy="7" rx="1.5" ry="1"/>
		<ellipse class="st0" cx="25.5" cy="5" rx="1.5" ry="1"/>
		<ellipse class="st0" cx="27.5" cy="15" rx="1.5" ry="1"/>
		<ellipse class="st0" cx="27.5" cy="13" rx="1.5" ry="1"/>
		<ellipse class="st0" cx="27.5" cy="11" rx="1.5" ry="1"/>
		<ellipse class="st0" cx="27.5" cy="9" rx="1.5" ry="1"/>
		<ellipse class="st0" cx="27.5" cy="7" rx="1.5" ry="1"/>
		<ellipse class="st0" cx="29.5" cy="17" rx="1.5" ry="1"/>
		<ellipse class="st0" cx="29.5" cy="15" rx="1.5" ry="1"/>
		<ellipse class="st0" cx="29.5" cy="13" rx="1.5" ry="1"/>
		<ellipse class="st0" cx="29.5" cy="11" rx="1.5" ry="1"/>
		<ellipse class="st0" cx="29.5" cy="9" rx="1.5" ry="1"/>
		<ellipse class="st0" cx="31.5" cy="19" rx="1.5" ry="1"/>
		<ellipse class="st0" cx="31.5" cy="17" rx="1.5" ry="1"/>
		<ellipse class="st0" cx="31.5" cy="15" rx="1.5" ry="1"/>
		<ellipse class="st0" cx="31.5" cy="13" rx="1.5" ry="1"/>
		<ellipse class="st0" cx="31.5" cy="11" rx="1.5" ry="1"/>
		<ellipse class="st0" cx="1.5" cy="49.2" rx="1.5" ry="1"/>
		<ellipse class="st0" cx="1.5" cy="47.2" rx="1.5" ry="1"/>
		<ellipse class="st0" cx="1.5" cy="45.2" rx="1.5" ry="1"/>
		<ellipse class="st0" cx="1.5" cy="43.2" rx="1.5" ry="1"/>
		<ellipse class="st0" cx="1.5" cy="41.2" rx="1.5" ry="1"/>
		<ellipse class="st0" cx="3.5" cy="47.2" rx="1.5" ry="1"/>
		<ellipse class="st0" cx="3.5" cy="45.2" rx="1.5" ry="1"/>
		<ellipse class="st0" cx="3.5" cy="43.2" rx="1.5" ry="1"/>
		<ellipse class="st0" cx="3.5" cy="41.2" rx="1.5" ry="1"/>
		<ellipse class="st0" cx="3.5" cy="39.2" rx="1.5" ry="1"/>
		<ellipse class="st0" cx="5.5" cy="45.2" rx="1.5" ry="1"/>
		<ellipse class="st0" cx="5.5" cy="43.2" rx="1.5" ry="1"/>
		<ellipse class="st0" cx="5.5" cy="41.2" rx="1.5" ry="1"/>
		<ellipse class="st0" cx="5.5" cy="39.2" rx="1.5" ry="1"/>
		<ellipse class="st0" cx="5.5" cy="37.2" rx="1.5" ry="1"/>
		<ellipse class="st0" cx="7.5" cy="43.2" rx="1.5" ry="1"/>
		<ellipse class="st0" cx="7.5" cy="41.2" rx="1.5" ry="1"/>
		<ellipse class="st0" cx="7.5" cy="39.2" rx="1.5" ry="1"/>
		<ellipse class="st0" cx="7.5" cy="37.2" rx="1.5" ry="1"/>
		<ellipse class="st0" cx="7.5" cy="35.2" rx="1.5" ry="1"/>
		<ellipse class="st0" cx="9.5" cy="41.2" rx="1.5" ry="1"/>
		<ellipse class="st0" cx="9.5" cy="39.2" rx="1.5" ry="1"/>
		<ellipse class="st0" cx="9.5" cy="37.2" rx="1.5" ry="1"/>
		<ellipse class="st0" cx="9.5" cy="35.2" rx="1.5" ry="1"/>
		<ellipse class="st0" cx="9.5" cy="33.2" rx="1.5" ry="1"/>
		<ellipse class="st0" cx="11.5" cy="39.2" rx="1.5" ry="1"/>
		<ellipse class="st0" cx="11.5" cy="37.2" rx="1.5" ry="1"/>
		<ellipse class="st0" cx="11.5" cy="35.2" rx="1.5" ry="1"/>
		<ellipse class="st0" cx="11.5" cy="33.2" rx="1.5" ry="1"/>
		<ellipse class="st0" cx="11.5" cy="31.2" rx="1.5" ry="1"/>
		<ellipse class="st0" cx="13.5" cy="41.2" rx="1.5" ry="1"/>
		<ellipse class="st0" cx="13.5" cy="39.2" rx="1.5" ry="1"/>
		<ellipse class="st0" cx="13.5" cy="37.2" rx="1.5" ry="1"/>
		<ellipse class="st0" cx="13.5" cy="35.2" rx="1.5" ry="1"/>
		<ellipse class="st0" cx="13.5" cy="33.2" rx="1.5" ry="1"/>
		<ellipse class="st0" cx="15.5" cy="43.2" rx="1.5" ry="1"/>
		<ellipse class="st0" cx="15.5" cy="41.2" rx="1.5" ry="1"/>
		<ellipse class="st0" cx="15.5" cy="39.2" rx="1.5" ry="1"/>
		<ellipse class="st0" cx="15.5" cy="37.2" rx="1.5" ry="1"/>
		<ellipse class="st0" cx="15.5" cy="35.2" rx="1.5" ry="1"/>
		<ellipse class="st0" cx="17.5" cy="45.2" rx="1.5" ry="1"/>
		<ellipse class="st0" cx="17.5" cy="43.2" rx="1.5" ry="1"/>
		<ellipse class="st0" cx="17.5" cy="41.2" rx="1.5" ry="1"/>
		<ellipse class="st0" cx="17.5" cy="39.2" rx="1.5" ry="1"/>
		<ellipse class="st0" cx="17.5" cy="37.2" rx="1.5" ry="1"/>
		<ellipse class="st0" cx="19.5" cy="47.2" rx="1.5" ry="1"/>
		<ellipse class="st0" cx="19.5" cy="45.2" rx="1.5" ry="1"/>
		<ellipse class="st0" cx="19.5" cy="43.2" rx="1.5" ry="1"/>
		<ellipse class="st0" cx="19.5" cy="41.2" rx="1.5" ry="1"/>
		<ellipse class="st0" cx="19.5" cy="39.2" rx="1.5" ry="1"/>
		<ellipse class="st0" cx="21.5" cy="49.2" rx="1.5" ry="1"/>
		<ellipse class="st0" cx="21.5" cy="47.2" rx="1.5" ry="1"/>
		<ellipse class="st0" cx="21.5" cy="45.2" rx="1.5" ry="1"/>
		<ellipse class="st0" cx="21.5" cy="43.2" rx="1.5" ry="1"/>
		<ellipse class="st0" cx="21.5" cy="41.2" rx="1.5" ry="1"/>
		<ellipse class="st0" cx="21.5" cy="49.2" rx="1.5" ry="1"/>
		<ellipse class="st0" cx="21.5" cy="47.2" rx="1.5" ry="1"/>
		<ellipse class="st0" cx="21.5" cy="45.2" rx="1.5" ry="1"/>
		<ellipse class="st0" cx="21.5" cy="43.2" rx="1.5" ry="1"/>
		<ellipse class="st0" cx="21.5" cy="41.2" rx="1.5" ry="1"/>
		<ellipse class="st0" cx="23.5" cy="47.2" rx="1.5" ry="1"/>
		<ellipse class="st0" cx="23.5" cy="45.2" rx="1.5" ry="1"/>
		<ellipse class="st0" cx="23.5" cy="43.2" rx="1.5" ry="1"/>
		<ellipse class="st0" cx="23.5" cy="41.2" rx="1.5" ry="1"/>
		<ellipse class="st0" cx="23.5" cy="39.2" rx="1.5" ry="1"/>
		<ellipse class="st0" cx="25.5" cy="45.2" rx="1.5" ry="1"/>
		<ellipse class="st0" cx="25.5" cy="43.2" rx="1.5" ry="1"/>
		<ellipse class="st0" cx="25.5" cy="41.2" rx="1.5" ry="1"/>
		<ellipse class="st0" cx="25.5" cy="39.2" rx="1.5" ry="1"/>
		<ellipse class="st0" cx="25.5" cy="37.2" rx="1.5" ry="1"/>
		<ellipse class="st0" cx="27.5" cy="43.2" rx="1.5" ry="1"/>
		<ellipse class="st0" cx="27.5" cy="41.2" rx="1.5" ry="1"/>
		<ellipse class="st0" cx="27.5" cy="39.2" rx="1.5" ry="1"/>
		<ellipse class="st0" cx="27.5" cy="37.2" rx="1.5" ry="1"/>
		<ellipse class="st0" cx="27.5" cy="35.2" rx="1.5" ry="1"/>
		<ellipse class="st0" cx="29.5" cy="41.2" rx="1.5" ry="1"/>
		<ellipse class="st0" cx="29.5" cy="39.2" rx="1.5" ry="1"/>
		<ellipse class="st0" cx="29.5" cy="37.2" rx="1.5" ry="1"/>
		<ellipse class="st0" cx="29.5" cy="35.2" rx="1.5" ry="1"/>
		<ellipse class="st0" cx="29.5" cy="33.2" rx="1.5" ry="1"/>
		<ellipse class="st0" cx="31.5" cy="39.2" rx="1.5" ry="1"/>
		<ellipse class="st0" cx="31.5" cy="37.2" rx="1.5" ry="1"/>
		<ellipse class="st0" cx="31.5" cy="35.2" rx="1.5" ry="1"/>
		<ellipse class="st0" cx="31.5" cy="33.2" rx="1.5" ry="1"/>
		<ellipse class="st0" cx="31.5" cy="31.2" rx="1.5" ry="1"/>
		<ellipse class="st0" cx="33.5" cy="41.2" rx="1.5" ry="1"/>
		<ellipse class="st0" cx="33.5" cy="39.2" rx="1.5" ry="1"/>
		<ellipse class="st0" cx="33.5" cy="37.2" rx="1.5" ry="1"/>
		<ellipse class="st0" cx="33.5" cy="35.2" rx="1.5" ry="1"/>
		<ellipse class="st0" cx="33.5" cy="33.2" rx="1.5" ry="1"/>
		<ellipse class="st0" cx="35.5" cy="43.2" rx="1.5" ry="1"/>
		<ellipse class="st0" cx="35.5" cy="41.2" rx="1.5" ry="1"/>
		<ellipse class="st0" cx="35.5" cy="39.2" rx="1.5" ry="1"/>
		<ellipse class="st0" cx="35.5" cy="37.2" rx="1.5" ry="1"/>
		<ellipse class="st0" cx="35.5" cy="35.2" rx="1.5" ry="1"/>
		<ellipse class="st0" cx="37.5" cy="45.2" rx="1.5" ry="1"/>
		<ellipse class="st0" cx="37.5" cy="43.2" rx="1.5" ry="1"/>
		<ellipse class="st0" cx="37.5" cy="41.2" rx="1.5" ry="1"/>
		<ellipse class="st0" cx="37.5" cy="39.2" rx="1.5" ry="1"/>
		<ellipse class="st0" cx="37.5" cy="37.2" rx="1.5" ry="1"/>
		<ellipse class="st0" cx="39.5" cy="47.2" rx="1.5" ry="1"/>
		<ellipse class="st0" cx="39.5" cy="45.2" rx="1.5" ry="1"/>
		<ellipse class="st0" cx="39.5" cy="43.2" rx="1.5" ry="1"/>
		<ellipse class="st0" cx="39.5" cy="41.2" rx="1.5" ry="1"/>
		<ellipse class="st0" cx="39.5" cy="39.2" rx="1.5" ry="1"/>
		<ellipse class="st0" cx="41.5" cy="49.2" rx="1.5" ry="1"/>
		<ellipse class="st0" cx="41.5" cy="47.2" rx="1.5" ry="1"/>
		<ellipse class="st0" cx="41.5" cy="45.2" rx="1.5" ry="1"/>
		<ellipse class="st0" cx="41.5" cy="43.2" rx="1.5" ry="1"/>
		<ellipse class="st0" cx="41.5" cy="41.2" rx="1.5" ry="1"/>
		<ellipse class="st0" cx="41.5" cy="49.2" rx="1.5" ry="1"/>
		<ellipse class="st0" cx="41.5" cy="47.2" rx="1.5" ry="1"/>
		<ellipse class="st0" cx="41.5" cy="45.2" rx="1.5" ry="1"/>
		<ellipse class="st0" cx="41.5" cy="43.2" rx="1.5" ry="1"/>
		<ellipse class="st0" cx="41.5" cy="41.2" rx="1.5" ry="1"/>
		<ellipse class="st0" cx="43.5" cy="47.2" rx="1.5" ry="1"/>
		<ellipse class="st0" cx="43.5" cy="45.2" rx="1.5" ry="1"/>
		<ellipse class="st0" cx="43.5" cy="43.2" rx="1.5" ry="1"/>
		<ellipse class="st0" cx="43.5" cy="41.2" rx="1.5" ry="1"/>
		<ellipse class="st0" cx="43.5" cy="39.2" rx="1.5" ry="1"/>
		<ellipse class="st0" cx="45.5" cy="45.2" rx="1.5" ry="1"/>
		<ellipse class="st0" cx="45.5" cy="43.2" rx="1.5" ry="1"/>
		<ellipse class="st0" cx="45.5" cy="41.2" rx="1.5" ry="1"/>
		<ellipse class="st0" cx="45.5" cy="39.2" rx="1.5" ry="1"/>
		<ellipse class="st0" cx="45.5" cy="37.2" rx="1.5" ry="1"/>
		<ellipse class="st0" cx="47.5" cy="43.2" rx="1.5" ry="1"/>
		<ellipse class="st0" cx="47.5" cy="41.2" rx="1.5" ry="1"/>
		<ellipse class="st0" cx="47.5" cy="39.2" rx="1.5" ry="1"/>
		<ellipse class="st0" cx="47.5" cy="37.2" rx="1.5" ry="1"/>
		<ellipse class="st0" cx="47.5" cy="35.2" rx="1.5" ry="1"/>
		<ellipse class="st0" cx="49.5" cy="41.2" rx="1.5" ry="1"/>
		<ellipse class="st0" cx="49.5" cy="39.2" rx="1.5" ry="1"/>
		<ellipse class="st0" cx="49.5" cy="37.2" rx="1.5" ry="1"/>
		<ellipse class="st0" cx="49.5" cy="35.2" rx="1.5" ry="1"/>
		<ellipse class="st0" cx="49.5" cy="33.2" rx="1.5" ry="1"/>
		<ellipse class="st0" cx="51.5" cy="39.2" rx="1.5" ry="1"/>
		<ellipse class="st0" cx="51.5" cy="37.2" rx="1.5" ry="1"/>
		<ellipse class="st0" cx="51.5" cy="35.2" rx="1.5" ry="1"/>
		<ellipse class="st0" cx="51.5" cy="33.2" rx="1.5" ry="1"/>
		<ellipse class="st0" cx="51.5" cy="31.2" rx="1.5" ry="1"/>
		<ellipse class="st0" cx="53.5" cy="41.2" rx="1.5" ry="1"/>
		<ellipse class="st0" cx="53.5" cy="39.2" rx="1.5" ry="1"/>
		<ellipse class="st0" cx="53.5" cy="37.2" rx="1.5" ry="1"/>
		<ellipse class="st0" cx="53.5" cy="35.2" rx="1.5" ry="1"/>
		<ellipse class="st0" cx="53.5" cy="33.2" rx="1.5" ry="1"/>
		<ellipse class="st0" cx="55.5" cy="43.2" rx="1.5" ry="1"/>
		<ellipse class="st0" cx="55.5" cy="41.2" rx="1.5" ry="1"/>
		<ellipse class="st0" cx="55.5" cy="39.2" rx="1.5" ry="1"/>
		<ellipse class="st0" cx="55.5" cy="37.2" rx="1.5" ry="1"/>
		<ellipse class="st0" cx="55.5" cy="35.2" rx="1.5" ry="1"/>
		<ellipse class="st0" cx="57.5" cy="45.2" rx="1.5" ry="1"/>
		<ellipse class="st0" cx="57.5" cy="43.2" rx="1.5" ry="1"/>
		<ellipse class="st0" cx="57.5" cy="41.2" rx="1.5" ry="1"/>
		<ellipse class="st0" cx="57.5" cy="39.2" rx="1.5" ry="1"/>
		<ellipse class="st0" cx="57.5" cy="37.2" rx="1.5" ry="1"/>
		<ellipse class="st0" cx="59.5" cy="47.2" rx="1.5" ry="1"/>
		<ellipse class="st0" cx="59.5" cy="45.2" rx="1.5" ry="1"/>
		<ellipse class="st0" cx="59.5" cy="43.2" rx="1.5" ry="1"/>
		<ellipse class="st0" cx="59.5" cy="41.2" rx="1.5" ry="1"/>
		<ellipse class="st0" cx="59.5" cy="39.2" rx="1.5" ry="1"/>
		<ellipse class="st0" cx="61.5" cy="49.2" rx="1.5" ry="1"/>
		<ellipse class="st0" cx="61.5" cy="47.2" rx="1.5" ry="1"/>
		<ellipse class="st0" cx="61.5" cy="45.2" rx="1.5" ry="1"/>
		<ellipse class="st0" cx="61.5" cy="43.2" rx="1.5" ry="1"/>
		<ellipse class="st0" cx="61.5" cy="41.2" rx="1.5" ry="1"/>
		<ellipse class="st0" cx="61.5" cy="49.2" rx="1.5" ry="1"/>
		<ellipse class="st0" cx="61.5" cy="47.2" rx="1.5" ry="1"/>
		<ellipse class="st0" cx="61.5" cy="45.2" rx="1.5" ry="1"/>
		<ellipse class="st0" cx="61.5" cy="43.2" rx="1.5" ry="1"/>
		<ellipse class="st0" cx="61.5" cy="41.2" rx="1.5" ry="1"/>
		<ellipse class="st0" cx="63.5" cy="47.2" rx="1.5" ry="1"/>
		<ellipse class="st0" cx="63.5" cy="45.2" rx="1.5" ry="1"/>
		<ellipse class="st0" cx="63.5" cy="43.2" rx="1.5" ry="1"/>
		<ellipse class="st0" cx="63.5" cy="41.2" rx="1.5" ry="1"/>
		<ellipse class="st0" cx="63.5" cy="39.2" rx="1.5" ry="1"/>
		<ellipse class="st0" cx="65.5" cy="45.2" rx="1.5" ry="1"/>
		<ellipse class="st0" cx="65.5" cy="43.2" rx="1.5" ry="1"/>
		<ellipse class="st0" cx="65.5" cy="41.2" rx="1.5" ry="1"/>
		<ellipse class="st0" cx="65.5" cy="39.2" rx="1.5" ry="1"/>
		<ellipse class="st0" cx="65.5" cy="37.2" rx="1.5" ry="1"/>
		<ellipse class="st0" cx="67.5" cy="43.2" rx="1.5" ry="1"/>
		<ellipse class="st0" cx="67.5" cy="41.2" rx="1.5" ry="1"/>
		<ellipse class="st0" cx="67.5" cy="39.2" rx="1.5" ry="1"/>
		<ellipse class="st0" cx="67.5" cy="37.2" rx="1.5" ry="1"/>
		<ellipse class="st0" cx="67.5" cy="35.2" rx="1.5" ry="1"/>
		<ellipse class="st0" cx="69.5" cy="41.2" rx="1.5" ry="1"/>
		<ellipse class="st0" cx="69.5" cy="39.2" rx="1.5" ry="1"/>
		<ellipse class="st0" cx="69.5" cy="37.2" rx="1.5" ry="1"/>
		<ellipse class="st0" cx="69.5" cy="35.2" rx="1.5" ry="1"/>
		<ellipse class="st0" cx="69.5" cy="33.2" rx="1.5" ry="1"/>
		<ellipse class="st0" cx="71.5" cy="39.2" rx="1.5" ry="1"/>
		<ellipse class="st0" cx="71.5" cy="37.2" rx="1.5" ry="1"/>
		<ellipse class="st0" cx="71.5" cy="35.2" rx="1.5" ry="1"/>
		<ellipse class="st0" cx="71.5" cy="33.2" rx="1.5" ry="1"/>
		<ellipse class="st0" cx="71.5" cy="31.2" rx="1.5" ry="1"/>
		<ellipse class="st0" cx="73.5" cy="41.2" rx="1.5" ry="1"/>
		<ellipse class="st0" cx="73.5" cy="39.2" rx="1.5" ry="1"/>
		<ellipse class="st0" cx="73.5" cy="37.2" rx="1.5" ry="1"/>
		<ellipse class="st0" cx="73.5" cy="35.2" rx="1.5" ry="1"/>
		<ellipse class="st0" cx="73.5" cy="33.2" rx="1.5" ry="1"/>
		<ellipse class="st0" cx="75.5" cy="43.2" rx="1.5" ry="1"/>
		<ellipse class="st0" cx="75.5" cy="41.2" rx="1.5" ry="1"/>
		<ellipse class="st0" cx="75.5" cy="39.2" rx="1.5" ry="1"/>
		<ellipse class="st0" cx="75.5" cy="37.2" rx="1.5" ry="1"/>
		<ellipse class="st0" cx="75.5" cy="35.2" rx="1.5" ry="1"/>
		<ellipse class="st0" cx="77.5" cy="45.2" rx="1.5" ry="1"/>
		<ellipse class="st0" cx="77.5" cy="43.2" rx="1.5" ry="1"/>
		<ellipse class="st0" cx="77.5" cy="41.2" rx="1.5" ry="1"/>
		<ellipse class="st0" cx="77.5" cy="39.2" rx="1.5" ry="1"/>
		<ellipse class="st0" cx="77.5" cy="37.2" rx="1.5" ry="1"/>
		<ellipse class="st0" cx="79.5" cy="47.2" rx="1.5" ry="1"/>
		<ellipse class="st0" cx="79.5" cy="45.2" rx="1.5" ry="1"/>
		<ellipse class="st0" cx="79.5" cy="43.2" rx="1.5" ry="1"/>
		<ellipse class="st0" cx="79.5" cy="41.2" rx="1.5" ry="1"/>
		<ellipse class="st0" cx="79.5" cy="39.2" rx="1.5" ry="1"/>
		<ellipse class="st0" cx="81.5" cy="49.2" rx="1.5" ry="1"/>
		<ellipse class="st0" cx="81.5" cy="47.2" rx="1.5" ry="1"/>
		<ellipse class="st0" cx="81.5" cy="45.2" rx="1.5" ry="1"/>
		<ellipse class="st0" cx="81.5" cy="43.2" rx="1.5" ry="1"/>
		<ellipse class="st0" cx="81.5" cy="41.2" rx="1.5" ry="1"/>
		<ellipse class="st0" cx="11.5" cy="79.1" rx="1.5" ry="1"/>
		<ellipse class="st0" cx="11.5" cy="77.1" rx="1.5" ry="1"/>
		<ellipse class="st0" cx="11.5" cy="75.1" rx="1.5" ry="1"/>
		<ellipse class="st0" cx="11.5" cy="73.1" rx="1.5" ry="1"/>
		<ellipse class="st0" cx="11.5" cy="71.1" rx="1.5" ry="1"/>
		<ellipse class="st0" cx="13.5" cy="77.1" rx="1.5" ry="1"/>
		<ellipse class="st0" cx="13.5" cy="75.1" rx="1.5" ry="1"/>
		<ellipse class="st0" cx="13.5" cy="73.1" rx="1.5" ry="1"/>
		<ellipse class="st0" cx="13.5" cy="71.1" rx="1.5" ry="1"/>
		<ellipse class="st0" cx="13.5" cy="69.1" rx="1.5" ry="1"/>
		<ellipse class="st0" cx="15.5" cy="75.1" rx="1.5" ry="1"/>
		<ellipse class="st0" cx="15.5" cy="73.1" rx="1.5" ry="1"/>
		<ellipse class="st0" cx="15.5" cy="71.1" rx="1.5" ry="1"/>
		<ellipse class="st0" cx="15.5" cy="69.1" rx="1.5" ry="1"/>
		<ellipse class="st0" cx="15.5" cy="67.1" rx="1.5" ry="1"/>
		<ellipse class="st0" cx="17.5" cy="73.1" rx="1.5" ry="1"/>
		<ellipse class="st0" cx="17.5" cy="71.1" rx="1.5" ry="1"/>
		<ellipse class="st0" cx="17.5" cy="69.1" rx="1.5" ry="1"/>
		<ellipse class="st0" cx="17.5" cy="67.1" rx="1.5" ry="1"/>
		<ellipse class="st0" cx="17.5" cy="65.1" rx="1.5" ry="1"/>
		<ellipse class="st0" cx="19.5" cy="71.1" rx="1.5" ry="1"/>
		<ellipse class="st0" cx="19.5" cy="69.1" rx="1.5" ry="1"/>
		<ellipse class="st0" cx="19.5" cy="67.1" rx="1.5" ry="1"/>
		<ellipse class="st0" cx="19.5" cy="65.1" rx="1.5" ry="1"/>
		<ellipse class="st0" cx="19.5" cy="63.1" rx="1.5" ry="1"/>
		<ellipse class="st0" cx="21.5" cy="69.1" rx="1.5" ry="1"/>
		<ellipse class="st0" cx="21.5" cy="67.1" rx="1.5" ry="1"/>
		<ellipse class="st0" cx="21.5" cy="65.1" rx="1.5" ry="1"/>
		<ellipse class="st0" cx="21.5" cy="63.1" rx="1.5" ry="1"/>
		<ellipse class="st0" cx="21.5" cy="61.1" rx="1.5" ry="1"/>
		<ellipse class="st0" cx="23.5" cy="71.1" rx="1.5" ry="1"/>
		<ellipse class="st0" cx="23.5" cy="69.1" rx="1.5" ry="1"/>
		<ellipse class="st0" cx="23.5" cy="67.1" rx="1.5" ry="1"/>
		<ellipse class="st0" cx="23.5" cy="65.1" rx="1.5" ry="1"/>
		<ellipse class="st0" cx="23.5" cy="63.1" rx="1.5" ry="1"/>
		<ellipse class="st0" cx="25.5" cy="73.1" rx="1.5" ry="1"/>
		<ellipse class="st0" cx="25.5" cy="71.1" rx="1.5" ry="1"/>
		<ellipse class="st0" cx="25.5" cy="69.1" rx="1.5" ry="1"/>
		<ellipse class="st0" cx="25.5" cy="67.1" rx="1.5" ry="1"/>
		<ellipse class="st0" cx="25.5" cy="65.1" rx="1.5" ry="1"/>
		<ellipse class="st0" cx="27.5" cy="75.1" rx="1.5" ry="1"/>
		<ellipse class="st0" cx="27.5" cy="73.1" rx="1.5" ry="1"/>
		<ellipse class="st0" cx="27.5" cy="71.1" rx="1.5" ry="1"/>
		<ellipse class="st0" cx="27.5" cy="69.1" rx="1.5" ry="1"/>
		<ellipse class="st0" cx="27.5" cy="67.1" rx="1.5" ry="1"/>
		<ellipse class="st0" cx="29.5" cy="77.1" rx="1.5" ry="1"/>
		<ellipse class="st0" cx="29.5" cy="75.1" rx="1.5" ry="1"/>
		<ellipse class="st0" cx="29.5" cy="73.1" rx="1.5" ry="1"/>
		<ellipse class="st0" cx="29.5" cy="71.1" rx="1.5" ry="1"/>
		<ellipse class="st0" cx="29.5" cy="69.1" rx="1.5" ry="1"/>
		<ellipse class="st0" cx="31.5" cy="79.1" rx="1.5" ry="1"/>
		<ellipse class="st0" cx="31.5" cy="77.1" rx="1.5" ry="1"/>
		<ellipse class="st0" cx="31.5" cy="75.1" rx="1.5" ry="1"/>
		<ellipse class="st0" cx="31.5" cy="73.1" rx="1.5" ry="1"/>
		<ellipse class="st0" cx="31.5" cy="71.1" rx="1.5" ry="1"/>
		<ellipse class="st0" cx="31.5" cy="79.1" rx="1.5" ry="1"/>
		<ellipse class="st0" cx="31.5" cy="77.1" rx="1.5" ry="1"/>
		<ellipse class="st0" cx="31.5" cy="75.1" rx="1.5" ry="1"/>
		<ellipse class="st0" cx="31.5" cy="73.1" rx="1.5" ry="1"/>
		<ellipse class="st0" cx="31.5" cy="71.1" rx="1.5" ry="1"/>
		<ellipse class="st0" cx="33.5" cy="77.1" rx="1.5" ry="1"/>
		<ellipse class="st0" cx="33.5" cy="75.1" rx="1.5" ry="1"/>
		<ellipse class="st0" cx="33.5" cy="73.1" rx="1.5" ry="1"/>
		<ellipse class="st0" cx="33.5" cy="71.1" rx="1.5" ry="1"/>
		<ellipse class="st0" cx="33.5" cy="69.1" rx="1.5" ry="1"/>
		<ellipse class="st0" cx="35.5" cy="75.1" rx="1.5" ry="1"/>
		<ellipse class="st0" cx="35.5" cy="73.1" rx="1.5" ry="1"/>
		<ellipse class="st0" cx="35.5" cy="71.1" rx="1.5" ry="1"/>
		<ellipse class="st0" cx="35.5" cy="69.1" rx="1.5" ry="1"/>
		<ellipse class="st0" cx="35.5" cy="67.1" rx="1.5" ry="1"/>
		<ellipse class="st0" cx="37.5" cy="73.1" rx="1.5" ry="1"/>
		<ellipse class="st0" cx="37.5" cy="71.1" rx="1.5" ry="1"/>
		<ellipse class="st0" cx="37.5" cy="69.1" rx="1.5" ry="1"/>
		<ellipse class="st0" cx="37.5" cy="67.1" rx="1.5" ry="1"/>
		<ellipse class="st0" cx="37.5" cy="65.1" rx="1.5" ry="1"/>
		<ellipse class="st0" cx="39.5" cy="71.1" rx="1.5" ry="1"/>
		<ellipse class="st0" cx="39.5" cy="69.1" rx="1.5" ry="1"/>
		<ellipse class="st0" cx="39.5" cy="67.1" rx="1.5" ry="1"/>
		<ellipse class="st0" cx="39.5" cy="65.1" rx="1.5" ry="1"/>
		<ellipse class="st0" cx="39.5" cy="63.1" rx="1.5" ry="1"/>
		<ellipse class="st0" cx="41.5" cy="69.1" rx="1.5" ry="1"/>
		<ellipse class="st0" cx="41.5" cy="67.1" rx="1.5" ry="1"/>
		<ellipse class="st0" cx="41.5" cy="65.1" rx="1.5" ry="1"/>
		<ellipse class="st0" cx="41.5" cy="63.1" rx="1.5" ry="1"/>
		<ellipse class="st0" cx="41.5" cy="61.1" rx="1.5" ry="1"/>
		<ellipse class="st0" cx="43.5" cy="71.1" rx="1.5" ry="1"/>
		<ellipse class="st0" cx="43.5" cy="69.1" rx="1.5" ry="1"/>
		<ellipse class="st0" cx="43.5" cy="67.1" rx="1.5" ry="1"/>
		<ellipse class="st0" cx="43.5" cy="65.1" rx="1.5" ry="1"/>
		<ellipse class="st0" cx="43.5" cy="63.1" rx="1.5" ry="1"/>
		<ellipse class="st0" cx="45.5" cy="73.1" rx="1.5" ry="1"/>
		<ellipse class="st0" cx="45.5" cy="71.1" rx="1.5" ry="1"/>
		<ellipse class="st0" cx="45.5" cy="69.1" rx="1.5" ry="1"/>
		<ellipse class="st0" cx="45.5" cy="67.1" rx="1.5" ry="1"/>
		<ellipse class="st0" cx="45.5" cy="65.1" rx="1.5" ry="1"/>
		<ellipse class="st0" cx="47.5" cy="75.1" rx="1.5" ry="1"/>
		<ellipse class="st0" cx="47.5" cy="73.1" rx="1.5" ry="1"/>
		<ellipse class="st0" cx="47.5" cy="71.1" rx="1.5" ry="1"/>
		<ellipse class="st0" cx="47.5" cy="69.1" rx="1.5" ry="1"/>
		<ellipse class="st0" cx="47.5" cy="67.1" rx="1.5" ry="1"/>
		<ellipse class="st0" cx="49.5" cy="77.1" rx="1.5" ry="1"/>
		<ellipse class="st0" cx="49.5" cy="75.1" rx="1.5" ry="1"/>
		<ellipse class="st0" cx="49.5" cy="73.1" rx="1.5" ry="1"/>
		<ellipse class="st0" cx="49.5" cy="71.1" rx="1.5" ry="1"/>
		<ellipse class="st0" cx="49.5" cy="69.1" rx="1.5" ry="1"/>
		<ellipse class="st0" cx="51.5" cy="79.1" rx="1.5" ry="1"/>
		<ellipse class="st0" cx="51.5" cy="77.1" rx="1.5" ry="1"/>
		<ellipse class="st0" cx="51.5" cy="75.1" rx="1.5" ry="1"/>
		<ellipse class="st0" cx="51.5" cy="73.1" rx="1.5" ry="1"/>
		<ellipse class="st0" cx="51.5" cy="71.1" rx="1.5" ry="1"/>
		<ellipse class="st0" cx="51.5" cy="79.1" rx="1.5" ry="1"/>
		<ellipse class="st0" cx="51.5" cy="77.1" rx="1.5" ry="1"/>
		<ellipse class="st0" cx="51.5" cy="75.1" rx="1.5" ry="1"/>
		<ellipse class="st0" cx="51.5" cy="73.1" rx="1.5" ry="1"/>
		<ellipse class="st0" cx="51.5" cy="71.1" rx="1.5" ry="1"/>
		<ellipse class="st0" cx="53.5" cy="77.1" rx="1.5" ry="1"/>
		<ellipse class="st0" cx="53.5" cy="75.1" rx="1.5" ry="1"/>
		<ellipse class="st0" cx="53.5" cy="73.1" rx="1.5" ry="1"/>
		<ellipse class="st0" cx="53.5" cy="71.1" rx="1.5" ry="1"/>
		<ellipse class="st0" cx="53.5" cy="69.1" rx="1.5" ry="1"/>
		<ellipse class="st0" cx="55.5" cy="75.1" rx="1.5" ry="1"/>
		<ellipse class="st0" cx="55.5" cy="73.1" rx="1.5" ry="1"/>
		<ellipse class="st0" cx="55.5" cy="71.1" rx="1.5" ry="1"/>
		<ellipse class="st0" cx="55.5" cy="69.1" rx="1.5" ry="1"/>
		<ellipse class="st0" cx="55.5" cy="67.1" rx="1.5" ry="1"/>
		<ellipse class="st0" cx="57.5" cy="73.1" rx="1.5" ry="1"/>
		<ellipse class="st0" cx="57.5" cy="71.1" rx="1.5" ry="1"/>
		<ellipse class="st0" cx="57.5" cy="69.1" rx="1.5" ry="1"/>
		<ellipse class="st0" cx="57.5" cy="67.1" rx="1.5" ry="1"/>
		<ellipse class="st0" cx="57.5" cy="65.1" rx="1.5" ry="1"/>
		<ellipse class="st0" cx="59.5" cy="71.1" rx="1.5" ry="1"/>
		<ellipse class="st0" cx="59.5" cy="69.1" rx="1.5" ry="1"/>
		<ellipse class="st0" cx="59.5" cy="67.1" rx="1.5" ry="1"/>
		<ellipse class="st0" cx="59.5" cy="65.1" rx="1.5" ry="1"/>
		<ellipse class="st0" cx="59.5" cy="63.1" rx="1.5" ry="1"/>
		<ellipse class="st0" cx="61.5" cy="69.1" rx="1.5" ry="1"/>
		<ellipse class="st0" cx="61.5" cy="67.1" rx="1.5" ry="1"/>
		<ellipse class="st0" cx="61.5" cy="65.1" rx="1.5" ry="1"/>
		<ellipse class="st0" cx="61.5" cy="63.1" rx="1.5" ry="1"/>
		<ellipse class="st0" cx="61.5" cy="61.1" rx="1.5" ry="1"/>
		<ellipse class="st0" cx="63.5" cy="71.1" rx="1.5" ry="1"/>
		<ellipse class="st0" cx="63.5" cy="69.1" rx="1.5" ry="1"/>
		<ellipse class="st0" cx="63.5" cy="67.1" rx="1.5" ry="1"/>
		<ellipse class="st0" cx="63.5" cy="65.1" rx="1.5" ry="1"/>
		<ellipse class="st0" cx="63.5" cy="63.1" rx="1.5" ry="1"/>
		<ellipse class="st0" cx="65.5" cy="73.1" rx="1.5" ry="1"/>
		<ellipse class="st0" cx="65.5" cy="71.1" rx="1.5" ry="1"/>
		<ellipse class="st0" cx="65.5" cy="69.1" rx="1.5" ry="1"/>
		<ellipse class="st0" cx="65.5" cy="67.1" rx="1.5" ry="1"/>
		<ellipse class="st0" cx="65.5" cy="65.1" rx="1.5" ry="1"/>
		<ellipse class="st0" cx="67.5" cy="75.1" rx="1.5" ry="1"/>
		<ellipse class="st0" cx="67.5" cy="73.1" rx="1.5" ry="1"/>
		<ellipse class="st0" cx="67.5" cy="71.1" rx="1.5" ry="1"/>
		<ellipse class="st0" cx="67.5" cy="69.1" rx="1.5" ry="1"/>
		<ellipse class="st0" cx="67.5" cy="67.1" rx="1.5" ry="1"/>
		<ellipse class="st0" cx="69.5" cy="77.1" rx="1.5" ry="1"/>
		<ellipse class="st0" cx="69.5" cy="75.1" rx="1.5" ry="1"/>
		<ellipse class="st0" cx="69.5" cy="73.1" rx="1.5" ry="1"/>
		<ellipse class="st0" cx="69.5" cy="71.1" rx="1.5" ry="1"/>
		<ellipse class="st0" cx="69.5" cy="69.1" rx="1.5" ry="1"/>
		<ellipse class="st0" cx="71.5" cy="79.1" rx="1.5" ry="1"/>
		<ellipse class="st0" cx="71.5" cy="77.1" rx="1.5" ry="1"/>
		<ellipse class="st0" cx="71.5" cy="75.1" rx="1.5" ry="1"/>
		<ellipse class="st0" cx="71.5" cy="73.1" rx="1.5" ry="1"/>
		<ellipse class="st0" cx="71.5" cy="71.1" rx="1.5" ry="1"/>
	</g>
	<g>
		<ellipse class="st1" cx="11.5" cy="27" rx="1.5" ry="1"/>
		<ellipse class="st1" cx="13.5" cy="25" rx="1.5" ry="1"/>
		<ellipse class="st1" cx="15.5" cy="23" rx="1.5" ry="1"/>
		<ellipse class="st1" cx="17.5" cy="21" rx="1.5" ry="1"/>
		<ellipse class="st1" cx="19.5" cy="19" rx="1.5" ry="1"/>
		<ellipse class="st1" cx="21.5" cy="17" rx="1.5" ry="1"/>
		<ellipse class="st1" cx="23.5" cy="19" rx="1.5" ry="1"/>
		<ellipse class="st1" cx="25.5" cy="21" rx="1.5" ry="1"/>
		<ellipse class="st1" cx="27.5" cy="23" rx="1.5" ry="1"/>
		<ellipse class="st1" cx="29.5" cy="25" rx="1.5" ry="1"/>
		<ellipse class="st1" cx="31.5" cy="27" rx="1.5" ry="1"/>
		<ellipse class="st1" cx="1.5" cy="57.2" rx="1.5" ry="1"/>
		<ellipse class="st1" cx="3.5" cy="55.2" rx="1.5" ry="1"/>
		<ellipse class="st1" cx="5.5" cy="53.2" rx="1.5" ry="1"/>
		<ellipse class="st1" cx="7.5" cy="51.2" rx="1.5" ry="1"/>
		<ellipse class="st1" cx="9.5" cy="49.2" rx="1.5" ry="1"/>
		<ellipse class="st1" cx="11.5" cy="47.2" rx="1.5" ry="1"/>
		<ellipse class="st1" cx="13.5" cy="49.2" rx="1.5" ry="1"/>
		<ellipse class="st1" cx="15.5" cy="51.2" rx="1.5" ry="1"/>
		<ellipse class="st1" cx="17.5" cy="53.2" rx="1.5" ry="1"/>
		<ellipse class="st1" cx="19.5" cy="55.2" rx="1.5" ry="1"/>
		<ellipse class="st1" cx="21.5" cy="57.2" rx="1.5" ry="1"/>
		<ellipse class="st1" cx="21.5" cy="57.2" rx="1.5" ry="1"/>
		<ellipse class="st1" cx="23.5" cy="55.2" rx="1.5" ry="1"/>
		<ellipse class="st1" cx="25.5" cy="53.2" rx="1.5" ry="1"/>
		<ellipse class="st1" cx="27.5" cy="51.2" rx="1.5" ry="1"/>
		<ellipse class="st1" cx="29.5" cy="49.2" rx="1.5" ry="1"/>
		<ellipse class="st1" cx="31.5" cy="47.2" rx="1.5" ry="1"/>
		<ellipse class="st1" cx="33.5" cy="49.2" rx="1.5" ry="1"/>
		<ellipse class="st1" cx="35.5" cy="51.2" rx="1.5" ry="1"/>
		<ellipse class="st1" cx="37.5" cy="53.2" rx="1.5" ry="1"/>
		<ellipse class="st1" cx="39.5" cy="55.2" rx="1.5" ry="1"/>
		<ellipse class="st1" cx="41.5" cy="57.2" rx="1.5" ry="1"/>
		<ellipse class="st1" cx="41.5" cy="57.2" rx="1.5" ry="1"/>
		<ellipse class="st1" cx="43.5" cy="55.2" rx="1.5" ry="1"/>
		<ellipse class="st1" cx="45.5" cy="53.2" rx="1.5" ry="1"/>
		<ellipse class="st1" cx="47.5" cy="51.2" rx="1.5" ry="1"/>
		<ellipse class="st1" cx="49.5" cy="49.2" rx="1.5" ry="1"/>
		<ellipse class="st1" cx="51.5" cy="47.2" rx="1.5" ry="1"/>
		<ellipse class="st1" cx="53.5" cy="49.2" rx="1.5" ry="1"/>
		<ellipse class="st1" cx="55.5" cy="51.2" rx="1.5" ry="1"/>
		<ellipse class="st1" cx="57.5" cy="53.2" rx="1.5" ry="1"/>
		<ellipse class="st1" cx="59.5" cy="55.2" rx="1.5" ry="1"/>
		<ellipse class="st1" cx="61.5" cy="57.2" rx="1.5" ry="1"/>
		<ellipse class="st1" cx="61.5" cy="57.2" rx="1.5" ry="1"/>
		<ellipse class="st1" cx="63.5" cy="55.2" rx="1.5" ry="1"/>
		<ellipse class="st1" cx="65.5" cy="53.2" rx="1.5" ry="1"/>
		<ellipse class="st1" cx="67.5" cy="51.2" rx="1.5" ry="1"/>
		<ellipse class="st1" cx="69.5" cy="49.2" rx="1.5" ry="1"/>
		<ellipse class="st1" cx="71.5" cy="47.2" rx="1.5" ry="1"/>
		<ellipse class="st1" cx="73.5" cy="49.2" rx="1.5" ry="1"/>
		<ellipse class="st1" cx="75.5" cy="51.2" rx="1.5" ry="1"/>
		<ellipse class="st1" cx="77.5" cy="53.2" rx="1.5" ry="1"/>
		<ellipse class="st1" cx="79.5" cy="55.2" rx="1.5" ry="1"/>
		<ellipse class="st1" cx="81.5" cy="57.2" rx="1.5" ry="1"/>
		<ellipse class="st1" cx="11.5" cy="87.1" rx="1.5" ry="1"/>
		<ellipse class="st1" cx="13.5" cy="85.1" rx="1.5" ry="1"/>
		<ellipse class="st1" cx="15.5" cy="83.1" rx="1.5" ry="1"/>
		<ellipse class="st1" cx="17.5" cy="81.1" rx="1.5" ry="1"/>
		<ellipse class="st1" cx="19.5" cy="79.1" rx="1.5" ry="1"/>
		<ellipse class="st1" cx="21.5" cy="77.1" rx="1.5" ry="1"/>
		<ellipse class="st1" cx="23.5" cy="79.1" rx="1.5" ry="1"/>
		<ellipse class="st1" cx="25.5" cy="81.1" rx="1.5" ry="1"/>
		<ellipse class="st1" cx="27.5" cy="83.1" rx="1.5" ry="1"/>
		<ellipse class="st1" cx="29.5" cy="85.1" rx="1.5" ry="1"/>
		<ellipse class="st1" cx="31.5" cy="87.1" rx="1.5" ry="1"/>
		<ellipse class="st1" cx="31.5" cy="87.1" rx="1.5" ry="1"/>
		<ellipse class="st1" cx="33.5" cy="85.1" rx="1.5" ry="1"/>
		<ellipse class="st1" cx="35.5" cy="83.1" rx="1.5" ry="1"/>
		<ellipse class="st1" cx="37.5" cy="81.1" rx="1.5" ry="1"/>
		<ellipse class="st1" cx="39.5" cy="79.1" rx="1.5" ry="1"/>
		<ellipse class="st1" cx="41.5" cy="77.1" rx="1.5" ry="1"/>
		<ellipse class="st1" cx="43.5" cy="79.1" rx="1.5" ry="1"/>
		<ellipse class="st1" cx="45.5" cy="81.1" rx="1.5" ry="1"/>
		<ellipse class="st1" cx="47.5" cy="83.1" rx="1.5" ry="1"/>
		<ellipse class="st1" cx="49.5" cy="85.1" rx="1.5" ry="1"/>
		<ellipse class="st1" cx="51.5" cy="87.1" rx="1.5" ry="1"/>
		<ellipse class="st1" cx="51.5" cy="87.1" rx="1.5" ry="1"/>
		<ellipse class="st1" cx="53.5" cy="85.1" rx="1.5" ry="1"/>
		<ellipse class="st1" cx="55.5" cy="83.1" rx="1.5" ry="1"/>
		<ellipse class="st1" cx="57.5" cy="81.1" rx="1.5" ry="1"/>
		<ellipse class="st1" cx="59.5" cy="79.1" rx="1.5" ry="1"/>
		<ellipse class="st1" cx="61.5" cy="77.1" rx="1.5" ry="1"/>
		<ellipse class="st1" cx="63.5" cy="79.1" rx="1.5" ry="1"/>
		<ellipse class="st1" cx="65.5" cy="81.1" rx="1.5" ry="1"/>
		<ellipse class="st1" cx="67.5" cy="83.1" rx="1.5" ry="1"/>
		<ellipse class="st1" cx="69.5" cy="85.1" rx="1.5" ry="1"/>
		<ellipse class="st1" cx="71.5" cy="87.1" rx="1.5" ry="1"/>
		<ellipse class="st1" cx="11.5" cy="25" rx="1.5" ry="1"/>
		<ellipse class="st1" cx="13.5" cy="23" rx="1.5" ry="1"/>
		<ellipse class="st1" cx="15.5" cy="21" rx="1.5" ry="1"/>
		<ellipse class="st1" cx="17.5" cy="19" rx="1.5" ry="1"/>
		<ellipse class="st1" cx="19.5" cy="17" rx="1.5" ry="1"/>
		<ellipse class="st1" cx="21.5" cy="15" rx="1.5" ry="1"/>
		<ellipse class="st1" cx="23.5" cy="17" rx="1.5" ry="1"/>
		<ellipse class="st1" cx="25.5" cy="19" rx="1.5" ry="1"/>
		<ellipse class="st1" cx="27.5" cy="21" rx="1.5" ry="1"/>
		<ellipse class="st1" cx="29.5" cy="23" rx="1.5" ry="1"/>
		<ellipse class="st1" cx="31.5" cy="25" rx="1.5" ry="1"/>
		<ellipse class="st1" cx="1.5" cy="55.2" rx="1.5" ry="1"/>
		<ellipse class="st1" cx="3.5" cy="53.2" rx="1.5" ry="1"/>
		<ellipse class="st1" cx="5.5" cy="51.2" rx="1.5" ry="1"/>
		<ellipse class="st1" cx="7.5" cy="49.2" rx="1.5" ry="1"/>
		<ellipse class="st1" cx="9.5" cy="47.2" rx="1.5" ry="1"/>
		<ellipse class="st1" cx="11.5" cy="45.2" rx="1.5" ry="1"/>
		<ellipse class="st1" cx="13.5" cy="47.2" rx="1.5" ry="1"/>
		<ellipse class="st1" cx="15.5" cy="49.2" rx="1.5" ry="1"/>
		<ellipse class="st1" cx="17.5" cy="51.2" rx="1.5" ry="1"/>
		<ellipse class="st1" cx="19.5" cy="53.2" rx="1.5" ry="1"/>
		<ellipse class="st1" cx="21.5" cy="55.2" rx="1.5" ry="1"/>
		<ellipse class="st1" cx="21.5" cy="55.2" rx="1.5" ry="1"/>
		<ellipse class="st1" cx="23.5" cy="53.2" rx="1.5" ry="1"/>
		<ellipse class="st1" cx="25.5" cy="51.2" rx="1.5" ry="1"/>
		<ellipse class="st1" cx="27.5" cy="49.2" rx="1.5" ry="1"/>
		<ellipse class="st1" cx="29.5" cy="47.2" rx="1.5" ry="1"/>
		<ellipse class="st1" cx="31.5" cy="45.2" rx="1.5" ry="1"/>
		<ellipse class="st1" cx="33.5" cy="47.2" rx="1.5" ry="1"/>
		<ellipse class="st1" cx="35.5" cy="49.2" rx="1.5" ry="1"/>
		<ellipse class="st1" cx="37.5" cy="51.2" rx="1.5" ry="1"/>
		<ellipse class="st1" cx="39.5" cy="53.2" rx="1.5" ry="1"/>
		<ellipse class="st1" cx="41.5" cy="55.2" rx="1.5" ry="1"/>
		<ellipse class="st1" cx="41.5" cy="55.2" rx="1.5" ry="1"/>
		<ellipse class="st1" cx="43.5" cy="53.2" rx="1.5" ry="1"/>
		<ellipse class="st1" cx="45.5" cy="51.2" rx="1.5" ry="1"/>
		<ellipse class="st1" cx="47.5" cy="49.2" rx="1.5" ry="1"/>
		<ellipse class="st1" cx="49.5" cy="47.2" rx="1.5" ry="1"/>
		<ellipse class="st1" cx="51.5" cy="45.2" rx="1.5" ry="1"/>
		<ellipse class="st1" cx="53.5" cy="47.2" rx="1.5" ry="1"/>
		<ellipse class="st1" cx="55.5" cy="49.2" rx="1.5" ry="1"/>
		<ellipse class="st1" cx="57.5" cy="51.2" rx="1.5" ry="1"/>
		<ellipse class="st1" cx="59.5" cy="53.2" rx="1.5" ry="1"/>
		<ellipse class="st1" cx="61.5" cy="55.2" rx="1.5" ry="1"/>
		<ellipse class="st1" cx="61.5" cy="55.2" rx="1.5" ry="1"/>
		<ellipse class="st1" cx="63.5" cy="53.2" rx="1.5" ry="1"/>
		<ellipse class="st1" cx="65.5" cy="51.2" rx="1.5" ry="1"/>
		<ellipse class="st1" cx="67.5" cy="49.2" rx="1.5" ry="1"/>
		<ellipse class="st1" cx="69.5" cy="47.2" rx="1.5" ry="1"/>
		<ellipse class="st1" cx="71.5" cy="45.2" rx="1.5" ry="1"/>
		<ellipse class="st1" cx="73.5" cy="47.2" rx="1.5" ry="1"/>
		<ellipse class="st1" cx="75.5" cy="49.2" rx="1.5" ry="1"/>
		<ellipse class="st1" cx="77.5" cy="51.2" rx="1.5" ry="1"/>
		<ellipse class="st1" cx="79.5" cy="53.2" rx="1.5" ry="1"/>
		<ellipse class="st1" cx="81.5" cy="55.2" rx="1.5" ry="1"/>
		<ellipse class="st1" cx="11.5" cy="85.1" rx="1.5" ry="1"/>
		<ellipse class="st1" cx="13.5" cy="83.1" rx="1.5" ry="1"/>
		<ellipse class="st1" cx="15.5" cy="81.1" rx="1.5" ry="1"/>
		<ellipse class="st1" cx="17.5" cy="79.1" rx="1.5" ry="1"/>
		<ellipse class="st1" cx="19.5" cy="77.1" rx="1.5" ry="1"/>
		<ellipse class="st1" cx="21.5" cy="75.1" rx="1.5" ry="1"/>
		<ellipse class="st1" cx="23.5" cy="77.1" rx="1.5" ry="1"/>
		<ellipse class="st1" cx="25.5" cy="79.1" rx="1.5" ry="1"/>
		<ellipse class="st1" cx="27.5" cy="81.1" rx="1.5" ry="1"/>
		<ellipse class="st1" cx="29.5" cy="83.1" rx="1.5" ry="1"/>
		<ellipse class="st1" cx="31.5" cy="85.1" rx="1.5" ry="1"/>
		<ellipse class="st1" cx="31.5" cy="85.1" rx="1.5" ry="1"/>
		<ellipse class="st1" cx="33.5" cy="83.1" rx="1.5" ry="1"/>
		<ellipse class="st1" cx="35.5" cy="81.1" rx="1.5" ry="1"/>
		<ellipse class="st1" cx="37.5" cy="79.1" rx="1.5" ry="1"/>
		<ellipse class="st1" cx="39.5" cy="77.1" rx="1.5" ry="1"/>
		<ellipse class="st1" cx="41.5" cy="75.1" rx="1.5" ry="1"/>
		<ellipse class="st1" cx="43.5" cy="77.1" rx="1.5" ry="1"/>
		<ellipse class="st1" cx="45.5" cy="79.1" rx="1.5" ry="1"/>
		<ellipse class="st1" cx="47.5" cy="81.1" rx="1.5" ry="1"/>
		<ellipse class="st1" cx="49.5" cy="83.1" rx="1.5" ry="1"/>
		<ellipse class="st1" cx="51.5" cy="85.1" rx="1.5" ry="1"/>
		<ellipse class="st1" cx="51.5" cy="85.1" rx="1.5" ry="1"/>
		<ellipse class="st1" cx="53.5" cy="83.1" rx="1.5" ry="1"/>
		<ellipse class="st1" cx="55.5" cy="81.1" rx="1.5" ry="1"/>
		<ellipse class="st1" cx="57.5" cy="79.1" rx="1.5" ry="1"/>
		<ellipse class="st1" cx="59.5" cy="77.1" rx="1.5" ry="1"/>
		<ellipse class="st1" cx="61.5" cy="75.1" rx="1.5" ry="1"/>
		<ellipse class="st1" cx="63.5" cy="77.1" rx="1.5" ry="1"/>
		<ellipse class="st1" cx="65.5" cy="79.1" rx="1.5" ry="1"/>
		<ellipse class="st1" cx="67.5" cy="81.1" rx="1.5" ry="1"/>
		<ellipse class="st1" cx="69.5" cy="83.1" rx="1.5" ry="1"/>
		<ellipse class="st1" cx="71.5" cy="85.1" rx="1.5" ry="1"/>
	</g>
</g>
</svg>
